
{"glyphs":{"0":{"ha":500,"x_min":0,"x_max":0,"o":"m 543 783 b 351 1046 569 938 510 1046 l 315 1046 b 86 782 164 1046 113 946 l -1 229 b 186 -15 -26 72 54 -15 l 226 -15 b 456 229 358 -15 432 82 z m 267 229 b 219 169 261 193 251 169 b 185 231 185 169 179 199 l 275 801 b 322 865 281 839 288 865 b 357 800 353 865 364 843 z "},"1":{"ha":326,"x_min":0,"x_max":0,"o":"m 181 760 l 60 0 l 239 0 l 403 1033 l 250 1033 b 101 918 233 969 206 918 l 76 760 z "},"2":{"ha":494,"x_min":0,"x_max":0,"o":"m 319 878 b 350 829 346 878 356 864 l 340 768 b 265 613 333 725 326 692 b 151 467 233 569 182 506 b -25 106 11 286 -7 222 l -42 0 l 415 0 l 472 356 l 296 356 l 268 179 l 139 179 b 275 372 143 201 147 240 b 400 501 317 415 361 460 b 529 786 499 608 510 664 l 536 831 b 358 1046 558 971 497 1046 l 322 1046 b 117 853 183 1046 133 953 l 88 671 l 257 671 l 282 831 b 319 878 288 864 296 878 z "},"3":{"ha":471,"x_min":0,"x_max":0,"o":"m 250 715 l 268 831 b 306 878 272 858 279 878 b 336 829 332 878 342 864 l 314 689 b 274 643 308 654 301 643 l 183 643 l 156 458 l 256 458 b 276 417 282 458 281 443 l 244 215 b 203 167 239 181 229 167 b 171 214 175 167 167 188 l 197 379 l 19 379 l -8 204 b 181 -15 -29 74 32 -15 l 221 -15 b 425 199 350 -15 406 75 l 467 461 b 410 575 476 522 447 560 b 501 732 449 592 485 628 l 519 846 b 335 1046 539 968 476 1046 l 297 1046 b 106 847 157 1046 121 943 l 85 715 z "},"4":{"ha":497,"x_min":0,"x_max":0,"o":"m 222 407 l 143 407 b 264 664 181 488 233 596 z m 14 389 l -11 231 l 196 231 l 158 0 l 336 0 l 374 231 l 467 231 l 494 407 l 400 407 l 501 1040 l 339 1040 b 14 389 264 889 89 536 z "},"5":{"ha":472,"x_min":0,"x_max":0,"o":"m 221 460 l 231 521 b 264 572 236 556 242 572 b 289 522 293 572 293 549 l 239 207 b 200 160 233 172 224 160 b 171 204 171 160 168 186 l 199 379 l 18 379 l -11 194 b 172 -15 -28 90 17 -15 l 225 -15 b 422 183 351 -15 406 78 l 490 613 b 397 747 501 683 472 747 l 383 747 b 246 650 319 747 271 694 l 278 854 l 517 854 l 546 1033 l 133 1033 l 43 460 z "},"6":{"ha":496,"x_min":0,"x_max":0,"o":"m 219 158 b 182 213 182 158 178 183 l 219 454 b 265 504 225 490 238 504 b 303 453 292 504 308 490 l 265 213 b 219 158 261 186 254 158 z m 388 665 b 239 574 315 665 264 606 l 281 835 b 315 876 283 857 290 876 b 346 835 343 876 349 860 l 328 721 l 514 721 l 536 863 b 356 1047 553 968 488 1047 l 318 1047 b 93 828 171 1047 114 956 l -7 193 b 185 -17 -25 76 39 -17 l 229 -17 b 449 190 365 -17 432 88 l 501 526 b 397 665 513 593 486 665 z "},"7":{"ha":447,"x_min":0,"x_max":0,"o":"m 122 1033 l 72 715 l 238 715 l 261 867 l 364 867 b 224 519 357 819 326 740 b 79 106 114 283 96 211 l 63 0 l 278 0 l 297 124 b 394 517 310 204 329 310 b 513 876 458 718 497 832 l 539 1033 z "},"8":{"ha":486,"x_min":0,"x_max":0,"o":"m 256 207 b 213 161 251 179 239 161 b 182 207 188 161 178 181 l 214 410 b 254 461 219 443 229 461 b 288 410 282 461 293 442 z m 325 674 b 288 632 321 647 313 632 b 258 678 261 632 254 650 l 283 838 b 322 883 288 864 293 883 b 351 839 346 883 356 867 z m 532 850 b 346 1046 550 963 489 1046 l 315 1046 b 107 853 169 1046 122 949 l 85 711 b 131 569 74 636 100 592 b 28 419 82 547 42 506 l -7 201 b 181 -15 -28 69 39 -15 l 219 -15 b 442 203 360 -15 422 78 l 475 413 b 414 569 489 497 456 544 b 508 701 464 590 497 635 z "},"9":{"ha":496,"x_min":0,"x_max":0,"o":"m 158 365 b 303 457 224 365 276 422 l 261 194 b 225 154 258 176 251 154 b 194 196 199 154 190 169 l 213 310 l 26 310 l 7 188 b 194 -15 -12 65 42 -15 l 233 -15 b 444 182 376 -15 428 78 l 549 842 b 349 1046 568 964 501 1046 l 304 1046 b 93 838 157 1046 111 951 l 43 522 b 151 365 29 433 76 365 z m 321 871 b 357 811 357 871 363 847 l 319 576 b 274 525 315 547 304 525 b 236 578 244 525 231 543 l 274 814 b 321 871 279 846 286 871 z "},"!":{"ha":214,"x_min":0,"x_max":0,"o":"m 160 200 l -1 200 l -33 0 l 128 0 z m 113 1033 l 50 232 l 121 232 l 310 1033 z "},"\"":{"ha":311,"x_min":0,"x_max":0,"o":"m 247 1033 l 124 1033 l 81 768 l 204 768 z m 397 1033 l 274 1033 l 231 768 l 354 768 z "},"'":{"ha":163,"x_min":0,"x_max":0,"o":"m 250 1033 l 124 1033 l 81 768 l 207 768 z "},",":{"ha":199,"x_min":0,"x_max":0,"o":"m 65 -132 b 131 53 86 -97 117 -33 l 154 200 l -7 200 l -39 0 l 26 0 b -22 -132 18 -44 -10 -106 z "},"-":{"ha":242,"x_min":0,"x_max":0,"o":"m 38 499 l 11 331 l 218 331 l 244 499 z "},".":{"ha":199,"x_min":0,"x_max":0,"o":"m 154 200 l -7 200 l -39 0 l 122 0 z "},"?":{"ha":446,"x_min":0,"x_max":0,"o":"m 249 232 l 271 369 b 319 479 281 426 289 446 l 403 569 b 499 772 468 638 485 678 l 510 844 b 326 1046 528 972 478 1046 l 292 1046 b 90 838 138 1046 108 949 l 64 671 l 232 671 l 257 829 b 296 878 263 861 268 878 b 326 829 321 878 332 864 l 315 760 b 268 643 308 715 300 683 l 206 567 b 139 418 164 517 150 489 l 108 232 z m 254 200 l 93 200 l 61 0 l 222 0 z "},"A":{"ha":464,"x_min":0,"x_max":0,"o":"m 242 0 l 414 0 l 438 1033 l 225 1033 l -65 0 l 97 0 l 140 174 l 250 174 z m 186 351 l 274 700 l 258 351 z "},"B":{"ha":504,"x_min":0,"x_max":0,"o":"m -33 0 l 283 0 b 467 232 394 0 442 72 l 493 404 b 417 567 510 511 457 553 b 526 717 468 582 513 621 l 547 849 b 388 1033 569 981 508 1033 l 131 1033 z m 261 463 b 306 394 304 463 313 439 l 279 228 b 222 164 269 168 251 164 l 171 164 l 219 463 z m 325 875 b 365 821 357 875 371 857 l 343 683 b 290 629 335 639 318 629 l 246 629 l 285 875 z "},"C":{"ha":499,"x_min":0,"x_max":0,"o":"m 278 229 b 228 167 271 190 261 167 b 186 226 194 167 181 192 l 279 813 b 331 872 286 853 296 872 b 371 813 364 872 376 854 l 343 643 l 522 643 l 550 819 b 358 1047 569 939 538 1047 l 321 1047 b 92 813 163 1047 113 942 l -1 226 b 193 -15 -21 103 19 -15 l 229 -15 b 457 226 389 -15 438 101 l 493 454 l 314 454 z "},"D":{"ha":501,"x_min":0,"x_max":0,"o":"m -33 0 l 244 0 b 456 233 393 0 432 83 l 547 813 b 369 1033 572 969 503 1033 l 131 1033 z m 283 869 l 324 869 b 360 800 357 869 367 846 l 272 249 b 210 172 263 190 253 172 l 172 172 z "},"E":{"ha":429,"x_min":0,"x_max":0,"o":"m 131 1033 l -33 0 l 358 0 l 389 186 l 175 186 l 215 440 l 376 440 l 407 626 l 246 626 l 282 851 l 483 851 l 513 1033 z "},"F":{"ha":429,"x_min":0,"x_max":0,"o":"m 131 1033 l -33 0 l 146 0 l 215 442 l 374 442 l 404 628 l 246 628 l 282 853 l 493 853 l 522 1033 z "},"G":{"ha":506,"x_min":0,"x_max":0,"o":"m 149 -14 b 304 99 226 -14 286 58 b 319 0 313 71 319 21 l 426 0 l 525 626 l 286 626 l 257 453 l 325 453 l 289 229 b 228 165 282 186 263 165 b 188 236 196 165 181 189 l 278 807 b 331 872 285 851 297 872 b 369 807 368 872 375 849 l 351 694 l 526 694 l 544 806 b 353 1046 565 933 531 1046 l 317 1046 b 90 804 158 1046 110 929 l -7 188 b 136 -14 -24 83 26 -14 z "},"H":{"ha":506,"x_min":0,"x_max":0,"o":"m 215 436 l 311 436 l 242 0 l 421 0 l 585 1033 l 406 1033 l 343 639 l 247 639 l 310 1033 l 131 1033 l -33 0 l 146 0 z "},"I":{"ha":231,"x_min":0,"x_max":0,"o":"m 310 1033 l 131 1033 l -33 0 l 146 0 z "},"J":{"ha":476,"x_min":0,"x_max":0,"o":"m 29 454 l -12 192 b 156 -11 -35 53 39 -11 l 217 -11 b 426 210 342 -11 404 67 l 557 1033 l 371 1033 l 242 218 b 200 169 236 185 226 169 l 197 169 b 167 218 172 169 163 186 l 204 454 z "},"K":{"ha":504,"x_min":0,"x_max":0,"o":"m 247 639 l 310 1033 l 131 1033 l -33 0 l 146 0 l 217 447 l 267 0 l 456 0 l 392 557 l 604 1033 l 422 1033 z "},"L":{"ha":406,"x_min":0,"x_max":0,"o":"m 131 1033 l -33 0 l 336 0 l 367 186 l 175 186 l 310 1033 z "},"M":{"ha":619,"x_min":0,"x_max":0,"o":"m -33 0 l 124 0 l 222 618 l 215 0 l 285 0 l 471 618 l 372 0 l 535 0 l 699 1033 l 479 1033 l 329 508 l 343 1033 l 131 1033 z "},"N":{"ha":503,"x_min":0,"x_max":0,"o":"m 131 1033 l -33 0 l 126 0 l 218 575 l 265 0 l 418 0 l 582 1033 l 422 1033 l 338 499 l 299 1033 z "},"O":{"ha":517,"x_min":0,"x_max":0,"o":"m 332 865 b 374 797 368 865 381 842 l 283 228 b 229 169 279 201 268 169 b 186 228 189 169 182 200 l 276 797 b 332 865 283 842 296 865 z m 317 1046 b 86 782 167 1046 111 943 l 1 246 b 208 -15 -24 83 54 -15 l 246 -15 b 474 239 376 -15 449 82 l 560 783 b 354 1046 585 940 519 1046 z "},"P":{"ha":482,"x_min":0,"x_max":0,"o":"m 315 414 b 506 622 440 414 486 497 l 539 829 b 368 1033 560 957 521 1033 l 131 1033 l -33 0 l 146 0 l 211 414 z m 285 874 l 317 874 b 354 813 354 874 360 849 l 326 638 b 276 582 321 601 314 582 l 239 582 z "},"Q":{"ha":517,"x_min":0,"x_max":0,"o":"m 317 1046 b 86 782 167 1046 111 942 l 1 246 b 138 -7 -19 110 31 19 l 104 -215 l 324 -215 l 278 -12 b 474 239 388 1 450 94 l 560 783 b 354 1046 585 939 519 1046 z m 332 865 b 374 797 368 865 381 842 l 283 228 b 229 169 279 201 268 169 b 186 228 189 169 182 200 l 276 797 b 332 865 283 842 296 865 z "},"R":{"ha":494,"x_min":0,"x_max":0,"o":"m 215 442 l 253 442 b 292 376 290 442 300 426 l 244 79 b 249 0 238 36 243 11 l 428 0 l 429 7 b 426 85 424 24 419 42 l 482 435 b 422 557 494 513 446 546 b 525 696 471 571 513 614 l 551 861 b 400 1033 569 971 510 1033 l 131 1033 l -33 0 l 146 0 z m 285 874 l 324 874 b 361 818 357 874 368 857 l 339 674 b 282 613 332 626 315 613 l 243 613 z "},"S":{"ha":489,"x_min":0,"x_max":0,"o":"m 217 -12 b 454 224 351 -12 429 67 l 463 276 b 374 569 479 378 443 456 l 317 661 b 275 801 276 726 267 744 l 281 838 b 322 888 285 867 290 888 b 357 833 356 888 363 865 l 338 710 l 510 710 l 529 833 b 356 1046 551 978 493 1046 l 315 1046 b 97 851 190 1046 119 988 l 90 808 b 165 524 74 701 99 629 l 219 438 b 265 268 265 367 276 335 l 260 235 b 204 160 251 182 233 160 b 168 225 171 160 161 181 l 194 393 l 17 393 l -12 210 b 176 -12 -35 67 46 -12 z "},"T":{"ha":454,"x_min":0,"x_max":0,"o":"m 114 1033 l 85 851 l 215 851 l 81 0 l 260 0 l 394 851 l 521 851 l 550 1033 z "},"U":{"ha":506,"x_min":0,"x_max":0,"o":"m 4 246 b 192 -15 -22 79 56 -15 l 232 -15 b 461 246 364 -15 432 61 l 586 1033 l 401 1033 l 275 233 b 225 169 268 190 257 169 b 188 233 193 169 182 194 l 314 1033 l 129 1033 z "},"V":{"ha":479,"x_min":0,"x_max":0,"o":"m 76 0 l 304 0 l 589 1033 l 415 1033 l 243 340 l 279 1033 l 96 1033 z "},"W":{"ha":768,"x_min":0,"x_max":0,"o":"m 406 1033 l 244 385 l 282 1033 l 99 1033 l 74 0 l 281 0 l 419 579 l 386 0 l 596 0 l 878 1033 l 700 1033 l 543 372 l 576 1033 z "},"X":{"ha":485,"x_min":0,"x_max":0,"o":"m 150 553 l -67 0 l 113 0 l 243 358 l 256 0 l 433 0 l 396 553 l 578 1033 l 406 1033 l 303 724 l 292 1033 l 115 1033 z "},"Y":{"ha":442,"x_min":0,"x_max":0,"o":"m 557 1033 l 393 1033 l 274 667 l 268 1033 l 93 1033 l 143 411 l 78 0 l 258 0 l 324 417 z "},"Z":{"ha":443,"x_min":0,"x_max":0,"o":"m 128 1033 l 100 856 l 307 856 l -24 169 l -50 0 l 376 0 l 406 182 l 171 182 l 499 868 l 525 1033 z "},"a":{"ha":450,"x_min":0,"x_max":0,"o":"m -22 136 b 63 -7 -35 54 -4 -7 l 65 -7 b 199 83 131 -7 179 53 b 238 0 190 19 204 0 l 393 0 l 418 158 l 399 158 b 379 182 379 158 376 167 l 444 592 b 272 756 460 688 419 756 l 242 756 b 61 608 101 756 72 675 l 44 506 l 199 506 l 210 576 b 244 619 214 603 222 619 l 249 619 b 275 575 269 619 281 607 l 269 540 b 250 508 267 524 263 515 b 94 438 229 497 131 458 b 1 286 35 406 13 358 z m 175 142 b 153 190 154 142 149 164 l 167 276 b 192 335 171 306 176 319 b 242 367 203 346 225 358 l 213 185 b 175 142 208 157 199 142 z "},"b":{"ha":454,"x_min":0,"x_max":0,"o":"m 126 1033 l -37 0 l 90 0 b 118 100 94 19 107 69 b 251 -12 139 49 174 -12 l 254 -12 b 399 154 332 -12 385 65 l 472 619 b 379 756 483 690 451 756 l 372 756 b 240 664 306 756 254 686 l 299 1033 z m 222 551 b 263 603 226 581 236 603 b 289 554 285 603 294 590 l 231 185 b 192 142 226 158 214 142 b 165 190 167 142 161 163 z "},"c":{"ha":431,"x_min":0,"x_max":0,"o":"m 249 335 l 225 185 b 189 142 221 158 214 142 b 163 188 164 142 158 160 l 222 564 b 260 615 226 597 233 615 b 285 563 288 615 290 594 l 268 457 l 429 457 l 449 579 b 286 761 464 675 424 761 l 251 761 b 46 556 117 761 65 679 l -12 188 b 167 -15 -32 68 25 -15 l 194 -15 b 385 178 318 -15 367 64 l 410 335 z "},"d":{"ha":457,"x_min":0,"x_max":0,"o":"m 368 1033 l 310 664 b 190 756 294 696 260 756 l 185 756 b 57 607 108 756 68 681 l -15 151 b 82 -15 -29 63 7 -15 l 85 -15 b 218 83 151 -15 203 50 l 204 0 l 376 0 l 540 1033 z m 235 194 b 193 140 229 160 219 140 b 165 193 167 140 161 163 l 222 551 b 261 603 228 582 235 603 b 290 544 289 603 296 582 z "},"e":{"ha":433,"x_min":0,"x_max":0,"o":"m 278 761 l 242 761 b 49 574 115 761 65 681 l -14 181 b 151 -14 -35 49 38 -14 l 189 -14 b 385 176 294 -14 364 46 l 404 299 l 239 299 l 221 188 b 182 142 217 158 206 142 b 154 188 157 142 150 160 l 179 350 l 413 350 l 447 571 b 278 761 467 692 399 761 z m 215 574 b 254 624 221 604 228 624 b 285 571 283 624 290 606 l 271 483 l 200 483 z "},"f":{"ha":351,"x_min":0,"x_max":0,"o":"m 451 1033 l 290 1033 b 172 932 221 1033 182 993 l 143 747 l 63 747 l 36 582 l 118 582 l 25 0 l 197 0 l 290 582 l 379 582 l 406 747 l 315 747 l 331 843 b 364 876 333 861 336 876 l 426 876 z "},"g":{"ha":456,"x_min":0,"x_max":0,"o":"m 188 -92 b 150 -131 183 -115 176 -131 l 144 -131 b 118 -96 119 -131 115 -115 l 128 -35 l -36 -35 l -50 -122 b 122 -271 -62 -203 -21 -271 l 146 -271 b 358 -103 307 -271 346 -182 l 493 747 l 324 747 l 310 663 b 192 757 293 700 260 757 l 190 757 b 54 583 111 757 71 688 l -15 146 b 83 -14 -31 46 19 -14 b 215 82 146 -14 189 35 z m 229 175 b 193 133 225 151 215 133 b 164 175 168 133 160 151 l 225 561 b 263 607 229 589 236 607 b 290 560 289 607 294 586 z "},"h":{"ha":457,"x_min":0,"x_max":0,"o":"m -37 0 l 135 0 l 221 544 b 260 594 225 576 233 594 b 289 544 286 594 293 575 l 203 0 l 376 0 l 475 621 b 385 750 483 672 465 750 l 375 750 b 239 661 315 750 269 704 l 297 1033 l 126 1033 z "},"i":{"ha":215,"x_min":0,"x_max":0,"o":"m 253 747 l 81 747 l -37 0 l 135 0 z m 286 958 l 114 958 l 86 783 l 258 783 z "},"j":{"ha":215,"x_min":0,"x_max":0,"o":"m -149 -96 l -175 -261 l -4 -261 b 110 -160 64 -261 100 -222 l 253 747 l 81 747 l -49 -68 b -78 -96 -51 -86 -56 -96 z m 286 958 l 114 958 l 86 783 l 258 783 z "},"k":{"ha":460,"x_min":0,"x_max":0,"o":"m 213 493 l 299 1033 l 126 1033 l -37 0 l 135 0 l 188 333 l 236 0 l 410 0 l 343 422 l 518 747 l 349 747 z "},"l":{"ha":215,"x_min":0,"x_max":0,"o":"m 299 1033 l 126 1033 l -37 0 l 135 0 z "},"m":{"ha":689,"x_min":0,"x_max":0,"o":"m 379 753 l 374 753 b 238 660 310 753 260 694 l 251 747 l 81 747 l -37 0 l 135 0 l 221 544 b 258 594 225 575 232 594 b 285 544 286 594 289 574 l 199 0 l 371 0 l 457 544 b 494 594 463 576 469 594 b 521 544 519 594 526 578 l 435 0 l 608 0 l 707 622 b 617 753 719 700 681 753 l 610 753 b 469 661 549 753 499 703 b 379 753 464 711 431 753 z "},"n":{"ha":457,"x_min":0,"x_max":0,"o":"m -37 0 l 135 0 l 221 544 b 260 594 225 576 233 594 b 289 544 286 594 293 575 l 203 0 l 376 0 l 475 621 b 385 750 483 672 465 750 l 375 750 b 238 657 315 750 268 704 l 251 747 l 81 747 z "},"o":{"ha":454,"x_min":0,"x_max":0,"o":"m 207 -14 b 408 200 328 -14 389 78 l 465 554 b 288 761 486 688 410 761 l 247 761 b 46 551 126 761 67 685 l -11 197 b 167 -14 -31 78 29 -14 z m 261 607 b 292 556 290 607 296 586 l 235 200 b 194 147 231 172 225 147 b 164 200 167 147 160 169 l 221 556 b 261 607 225 586 233 607 z "},"p":{"ha":457,"x_min":0,"x_max":0,"o":"m 81 747 l -79 -261 l 93 -261 l 144 65 b 263 -15 165 24 203 -15 l 265 -15 b 401 150 333 -15 385 46 l 472 596 b 375 756 486 688 453 756 l 372 756 b 238 663 308 756 261 703 l 251 747 z m 222 558 b 263 606 228 592 236 606 b 290 558 288 606 294 588 l 231 181 b 192 131 225 146 215 131 b 163 182 169 131 157 147 z "},"q":{"ha":456,"x_min":0,"x_max":0,"o":"m 374 747 b 338 638 365 708 349 663 b 211 756 318 692 288 756 l 206 756 b 53 579 108 756 68 678 l -15 150 b 78 -15 -29 65 3 -15 l 83 -15 b 215 75 151 -15 196 44 l 161 -261 l 333 -261 l 494 747 z m 232 182 b 193 132 226 147 217 132 b 165 183 169 132 160 151 l 224 553 b 261 603 228 582 235 603 b 290 550 288 603 296 582 z "},"r":{"ha":413,"x_min":0,"x_max":0,"o":"m 253 747 l 81 747 l -37 0 l 135 0 l 224 558 b 249 596 228 583 232 596 b 267 556 268 596 271 583 l 240 389 l 400 389 l 442 651 b 374 751 451 713 429 751 l 367 751 b 238 651 299 751 254 685 z "},"s":{"ha":408,"x_min":0,"x_max":0,"o":"m 171 -12 b 369 168 306 -12 354 72 l 374 194 b 292 422 388 282 353 340 l 236 497 b 211 579 213 528 207 553 l 214 597 b 246 635 218 624 226 635 b 271 596 268 635 275 622 l 258 518 l 408 518 l 424 611 b 272 761 436 690 400 761 l 235 761 b 53 603 124 761 68 703 l 49 575 b 114 368 38 499 64 436 l 169 293 b 200 197 199 253 206 233 l 196 171 b 164 131 192 144 183 131 l 163 131 b 135 168 144 131 131 142 l 151 272 l -7 272 l -24 168 b 135 -12 -40 64 11 -12 z "},"t":{"ha":347,"x_min":0,"x_max":0,"o":"m 278 0 l 304 168 l 251 168 b 228 197 231 168 225 178 l 290 582 l 369 582 l 396 747 l 317 747 l 356 994 l 183 994 l 144 747 l 65 747 l 39 582 l 118 582 l 40 100 b 122 0 31 42 64 0 z "},"u":{"ha":453,"x_min":0,"x_max":0,"o":"m 490 747 l 318 747 l 232 203 b 194 153 228 172 221 153 b 168 203 171 153 163 171 l 254 747 l 81 747 l -17 135 b 69 -3 -26 74 -8 -3 l 79 -3 b 215 90 136 -3 188 44 l 201 0 l 372 0 z "},"v":{"ha":418,"x_min":0,"x_max":0,"o":"m 57 0 l 256 0 l 483 747 l 317 747 l 200 271 l 221 747 l 54 747 z "},"w":{"ha":668,"x_min":0,"x_max":0,"o":"m 336 0 l 515 0 l 733 747 l 571 747 l 456 281 l 474 747 l 319 747 l 204 286 l 224 747 l 54 747 l 57 0 l 244 0 l 344 408 z "},"x":{"ha":421,"x_min":0,"x_max":0,"o":"m 103 404 l -65 0 l 100 0 l 190 238 l 207 0 l 368 0 l 326 404 l 474 747 l 313 747 l 238 535 l 224 747 l 61 747 z "},"y":{"ha":422,"x_min":0,"x_max":0,"o":"m 75 13 b 69 -31 75 -1 74 -14 l 61 -62 b 22 -97 56 -82 49 -97 l -46 -97 l -72 -261 l 93 -261 b 203 -150 149 -261 179 -225 l 489 747 l 315 747 l 210 336 l 219 747 l 54 747 z "},"z":{"ha":364,"x_min":0,"x_max":0,"o":"m 82 747 l 57 592 l 213 592 l -26 149 l -51 0 l 297 0 l 322 158 l 146 158 l 386 606 l 408 747 z "},"‘":{"ha":190,"x_min":0,"x_max":0,"o":"m 76 728 l 226 728 l 256 906 l 196 906 b 243 1033 206 949 228 1003 l 157 1033 b 100 876 143 1008 111 947 z "},"’":{"ha":190,"x_min":0,"x_max":0,"o":"m 275 1033 l 125 1033 l 96 856 l 156 856 b 108 728 146 813 124 758 l 194 728 b 251 885 208 753 240 814 z "},"“":{"ha":364,"x_min":0,"x_max":0,"o":"m 250 728 l 400 728 l 429 906 l 369 906 b 417 1033 379 949 401 1003 l 331 1033 b 274 876 317 1008 285 947 z m 76 728 l 226 728 l 256 906 l 196 906 b 243 1033 206 949 228 1003 l 157 1033 b 100 876 143 1008 111 947 z "},"”":{"ha":364,"x_min":0,"x_max":0,"o":"m 449 1033 l 299 1033 l 269 856 l 329 856 b 282 728 319 813 297 758 l 368 728 b 425 885 382 753 414 814 z m 275 1033 l 125 1033 l 96 856 l 156 856 b 108 728 146 813 124 758 l 194 728 b 251 885 208 753 240 814 z "}," ":{"ha":143,"x_min":0,"x_max":0,"o":""}}}
